P3
5 4
250
201
90
58
203
92
62
210
95
66
204
91
59
204
91
59
204
93
63
208
94
65
200
86
57
203
90
56
205
91
64
201
89
63
203
91
65
206
92
66
203
86
66
205
91
64
203
91
65
205
91
64
211
97
70
210
96
69
204
93
65
