P3
5 4
255
151
90
58
153
92
62
160
95
66
154
91
59
154
91
59
154
93
63
158
94
65
150
86
57
153
90
56
155
91
64
151
89
63
153
91
65
156
92
66
153
86
66
155
91
64
153
91
65
155
91
64
161
97
70
160
96
69
154
93
65
